<?xml version="1.0" encoding="utf-8"?>
<!-- Generator: Adobe Illustrator 22.0.1, SVG Export Plug-In . SVG Version: 6.00 Build 0)  -->
<svg version="1.1" id="Layer_1" xmlns="http://www.w3.org/2000/svg" xmlns:xlink="http://www.w3.org/1999/xlink" x="0px" y="0px"
	 viewBox="0 0 50 43.7" style="enable-background:new 0 0 50 43.7;" xml:space="preserve">
<style type="text/css">
	.st0{fill:#FFFFFF;}
	.st1{fill:#151313;}
</style>
<g>
	<g>
		<path class="st1" d="M40.2,43.7c-0.9,0-1.8-0.3-2.5-1c-1.4-1.4-1.4-3.6,0-5c3.4-3.4,5.2-7.9,5.2-12.7c0-4.8-1.9-9.3-5.2-12.7
			C34.3,9,29.8,7.1,25,7.1S15.7,9,12.3,12.3C9,15.7,7.1,20.2,7.1,25s1.9,9.3,5.2,12.7c1.4,1.4,1.4,3.6,0,5c-1.4,1.4-3.6,1.4-5,0
			C2.6,38,0,31.7,0,25c0-6.7,2.6-13,7.3-17.7C12,2.6,18.3,0,25,0c6.7,0,13,2.6,17.7,7.3C47.4,12,50,18.3,50,25s-2.6,13-7.3,17.7
			C42,43.4,41.1,43.7,40.2,43.7z"/>
	</g>
	<g>
		<path class="st1" d="M25,41.7c-4.5,0-8.6-1.7-11.8-4.9C10,33.6,8.3,29.5,8.3,25c0-4.5,1.7-8.6,4.9-11.8C16.4,10,20.5,8.3,25,8.3
			c4.5,0,8.6,1.7,11.8,4.9c3.2,3.2,4.9,7.3,4.9,11.8s-1.7,8.7-4.9,11.8C33.7,40,29.5,41.7,25,41.7z M25,15.4c-2.6,0-5,1-6.8,2.8
			c-1.8,1.8-2.8,4.2-2.8,6.8c0,2.6,1,5,2.8,6.8c1.8,1.8,4.2,2.8,6.8,2.8s5-1,6.8-2.8c1.8-1.8,2.8-4.2,2.8-6.8s-1-5-2.8-6.8
			C30,16.4,27.6,15.4,25,15.4z"/>
	</g>
</g>
</svg>
