<?xml version="1.0" standalone="no"?>
<!DOCTYPE svg PUBLIC "-//W3C//DTD SVG 20010904//EN"
 "http://www.w3.org/TR/2001/REC-SVG-20010904/DTD/svg10.dtd">
<svg version="1.0" xmlns="http://www.w3.org/2000/svg"
 width="700.000000pt" height="700.000000pt" viewBox="0 0 700.000000 700.000000"
 preserveAspectRatio="xMidYMid meet">
<metadata>
Created by potrace 1.11, written by Peter Selinger 2001-2013
</metadata>
<g transform="translate(0.000000,700.000000) scale(0.100000,-0.100000)"
fill="#000000" stroke="none">
<path d="M2455 6025 c-140 -25 -268 -91 -380 -197 -57 -53 -81 -69 -120 -78
-78 -19 -224 -94 -292 -150 -34 -28 -84 -81 -113 -117 -47 -62 -56 -68 -118
-88 -194 -62 -360 -197 -461 -376 -68 -121 -109 -300 -98 -431 3 -38 81 -460
173 -938 l168 -869 -20 -83 c-25 -109 -26 -296 -1 -388 23 -85 76 -192 128
-260 l43 -55 58 -292 c38 -195 68 -318 88 -370 71 -178 210 -327 382 -411 131
-64 220 -85 363 -84 99 1 196 18 1009 175 l899 174 201 -49 c153 -38 227 -51
307 -55 168 -9 310 30 449 122 61 40 175 149 196 187 6 10 42 24 98 37 173 41
300 114 419 241 86 91 153 211 189 336 17 62 22 105 22 199 0 111 -7 157 -97
617 -53 273 -97 508 -97 523 0 14 62 279 137 588 l137 562 0 120 c0 135 -15
206 -68 320 -61 129 -169 250 -289 321 -44 26 -58 42 -89 102 -71 140 -183
255 -318 327 -36 18 -93 60 -126 93 -167 160 -377 241 -593 229 -62 -3 -267
-38 -571 -97 l-475 -92 -420 101 c-231 56 -447 106 -480 111 -78 13 -153 11
-240 -5z m299 -1821 c12 -12 16 -37 16 -104 l0 -88 38 19 c64 33 145 0 182
-75 18 -38 20 -59 18 -152 l-3 -109 -50 0 -50 0 -5 103 c-4 88 -8 106 -24 118
-26 18 -56 18 -84 -2 -20 -14 -22 -24 -22 -100 0 -107 -8 -124 -60 -124 -29 0
-42 5 -50 19 -6 12 -10 110 -10 250 0 252 2 261 60 261 16 0 36 -7 44 -16z
m1247 6 c22 -12 27 -68 7 -88 -7 -7 -29 -12 -50 -12 -32 0 -40 4 -49 26 -10
28 -3 64 15 76 16 11 54 10 77 -2z m317 -2 c7 -7 12 -26 12 -43 0 -36 -15 -55
-45 -55 -28 0 -45 -18 -45 -48 0 -21 3 -23 28 -17 16 3 41 1 55 -4 22 -9 27
-17 27 -45 0 -45 -22 -66 -70 -66 l-39 0 -3 -117 -3 -118 -50 0 -50 0 -3 118
c-2 107 -4 117 -22 117 -29 0 -51 29 -48 63 3 29 13 39 51 51 12 4 17 16 17
41 0 48 24 92 63 115 36 22 107 26 125 8z m-1808 -30 c60 -31 70 -50 44 -85
-25 -33 -56 -40 -86 -19 -27 19 -79 21 -96 4 -34 -34 0 -69 83 -88 106 -24
145 -63 145 -147 0 -160 -254 -221 -348 -83 -19 29 -20 36 -9 53 7 11 22 27
33 34 18 12 26 9 70 -22 27 -19 61 -35 76 -35 47 0 77 52 45 79 -8 6 -43 20
-80 31 -82 25 -123 59 -137 112 -14 50 -5 90 28 130 52 61 151 77 232 36z
m830 -143 c97 -50 130 -174 71 -266 -35 -56 -87 -84 -156 -84 -108 0 -185 77
-185 185 0 139 146 228 270 165z m263 -12 c8 -12 12 -12 27 2 23 21 88 22 128
1 43 -22 83 -86 89 -140 11 -96 -66 -186 -159 -186 -26 0 -50 5 -53 10 -16 26
-25 3 -25 -68 0 -97 -11 -115 -65 -110 l-40 3 -3 248 -2 248 22 8 c28 11 70 3
81 -16z m401 11 c13 -13 16 -43 16 -168 0 -105 -4 -156 -12 -164 -7 -7 -29
-12 -50 -12 -52 0 -58 19 -58 190 0 153 6 170 60 170 16 0 36 -7 44 -16z m525
-74 c29 -49 56 -90 60 -90 4 0 22 35 41 78 41 94 47 102 74 102 27 0 66 -27
66 -45 0 -23 -190 -448 -210 -468 -16 -17 -20 -17 -54 -3 -45 19 -46 34 -6
127 34 81 38 66 -54 218 -30 48 -57 97 -60 109 -9 26 28 62 64 62 22 0 34 -14
79 -90z m-2175 -722 c45 -59 84 -107 87 -107 3 -1 39 42 79 95 40 53 79 102
87 110 18 17 84 19 101 2 16 -16 17 -440 2 -469 -7 -13 -21 -19 -43 -19 -59 0
-62 6 -67 155 l-5 137 -55 -76 c-56 -77 -88 -98 -119 -79 -9 5 -41 42 -71 82
l-55 74 -5 -134 c-3 -74 -9 -140 -13 -146 -14 -21 -85 -16 -97 6 -15 30 -13
454 2 469 7 7 30 12 52 10 38 -3 44 -9 120 -110z m1374 80 c7 -7 12 -36 12
-66 l0 -54 33 6 c46 9 71 -12 71 -59 0 -43 -14 -55 -67 -55 l-38 0 3 -62 c3
-62 4 -63 38 -74 42 -14 58 -44 41 -80 -11 -25 -15 -26 -73 -22 -53 4 -65 9
-89 36 -27 30 -29 38 -29 117 0 82 -1 85 -23 85 -31 0 -47 18 -47 53 0 42 17
67 45 67 23 0 25 3 25 53 0 30 3 57 7 60 11 12 78 8 91 -5z m-663 -127 c37
-20 65 -74 65 -123 0 -60 -33 -78 -141 -78 -49 0 -89 -4 -89 -9 0 -33 89 -52
143 -32 37 14 69 -12 65 -52 -2 -26 -9 -34 -38 -44 -54 -18 -149 -15 -197 6
-78 36 -118 154 -83 246 37 97 177 140 275 86z m398 2 c66 -33 91 -143 41
-182 -23 -18 -41 -21 -115 -21 -93 0 -107 -8 -64 -36 20 -13 39 -15 94 -10 77
8 95 -2 89 -51 -4 -35 -46 -52 -132 -52 -82 -1 -138 27 -172 85 -23 39 -26 53
-22 112 2 50 9 76 26 100 52 72 170 98 255 55z m535 2 c3 -3 8 -51 11 -108 6
-98 7 -102 33 -115 28 -13 69 -4 84 20 5 7 11 55 14 107 5 91 6 95 31 103 16
5 37 5 52 -1 l27 -11 0 -158 c0 -110 -4 -162 -12 -170 -7 -7 -30 -12 -51 -12
-30 0 -40 4 -44 20 -5 20 -5 20 -33 0 -56 -40 -143 -16 -188 53 -24 36 -27 52
-30 147 -4 92 -2 109 14 124 13 13 27 17 52 12 19 -3 37 -8 40 -11z m425 -12
c8 -13 11 -12 27 2 23 21 88 22 128 1 18 -9 44 -35 59 -57 75 -114 2 -269
-128 -269 -26 0 -51 5 -54 10 -17 27 -25 2 -25 -74 0 -96 -8 -109 -67 -104
l-38 3 -3 248 -2 248 22 9 c29 12 70 3 81 -17z m537 9 c37 -18 42 -43 15 -71
-11 -11 -22 -12 -57 -3 -49 13 -88 6 -88 -14 0 -7 19 -18 43 -24 116 -30 137
-50 137 -129 0 -60 -30 -89 -108 -103 -55 -10 -70 -9 -118 7 -71 24 -80 35
-59 74 18 35 32 38 92 15 49 -19 106 -12 82 10 -8 7 -40 20 -72 30 -67 20 -97
57 -97 119 0 48 13 72 48 91 38 21 139 20 182 -2z"/>
<path d="M3217 3929 c-38 -22 -41 -98 -4 -121 23 -15 74 -8 92 12 55 60 -18
150 -88 109z"/>
<path d="M3652 3929 c-53 -20 -51 -101 3 -115 33 -8 50 -1 70 30 14 21 15 29
3 52 -15 32 -44 45 -76 33z"/>
<path d="M2922 3094 c-40 -28 -28 -44 32 -44 41 0 55 4 60 16 15 40 -48 59
-92 28z"/>
<path d="M3322 3094 c-40 -28 -28 -44 32 -44 41 0 55 4 60 16 15 40 -48 59
-92 28z"/>
<path d="M4473 3089 c-23 -8 -43 -38 -43 -61 0 -23 39 -58 64 -58 25 0 66 38
66 61 0 21 -27 56 -48 61 -10 3 -27 1 -39 -3z"/>
</g>
</svg>
